<?xml version="1.0" encoding="UTF-8"?>
<!DOCTYPE svg PUBLIC "-//W3C//DTD SVG 1.1//EN" "http://www.w3.org/Graphics/SVG/1.1/DTD/svg11.dtd">
<svg version="1.1" id="Layer_1" xmlns="http://www.w3.org/2000/svg" xmlns:xlink="http://www.w3.org/1999/xlink" x="0px" y="0px" width="44px" height="44px" viewBox="0 0 44 44" enable-background="new 0 0 44 44" xml:space="preserve">
<path opacity="0.7" d="M37,12.146C37,13.722,35.722,15,34.146,15H9.854C8.278,15,7,13.722,7,12.146v-0.292C7,10.278,8.278,9,9.854,9  h24.292C35.722,9,37,10.278,37,11.854V12.146z"/>
<path opacity="0.7" d="M37,22.146C37,23.722,35.722,25,34.146,25H9.854C8.278,25,7,23.722,7,22.146v-0.292  C7,20.278,8.278,19,9.854,19h24.292C35.722,19,37,20.278,37,21.854V22.146z"/>
<path opacity="0.7" d="M37,32.146C37,33.722,35.722,35,34.146,35H9.854C8.278,35,7,33.722,7,32.146v-0.292  C7,30.278,8.278,29,9.854,29h24.292C35.722,29,37,30.278,37,31.854V32.146z"/>
</svg>
